<svg width="383" height="339" viewBox="0 0 383 339" fill="none" xmlns="http://www.w3.org/2000/svg">
<path d="M221.896 153.012C207.155 138.28 183.264 138.28 168.524 153.012C153.784 167.745 153.784 191.624 168.524 206.356C183.264 221.089 207.155 221.089 221.896 206.356C236.636 191.624 236.636 167.745 221.896 153.012Z" fill="url(#paint0_linear_161_3522)"/>
<path d="M348.325 18.6878C348.325 29.0204 339.966 37.3755 329.628 37.3755C319.29 37.3755 310.931 29.0204 310.931 18.6878C310.931 8.35511 319.29 0 329.628 0C339.966 0 348.325 8.35511 348.325 18.6878Z" fill="url(#paint1_linear_161_3522)"/>
<path d="M37.345 269.44C37.345 279.773 28.9856 288.128 18.6476 288.128C8.30962 288.128 -0.0498047 279.773 -0.0498047 269.44C-0.0498047 259.107 8.30962 250.752 18.6476 250.752C28.9856 250.752 37.345 259.107 37.345 269.44Z" fill="url(#paint2_linear_161_3522)"/>
<path d="M248.755 123.843C229.266 105.205 202.605 98.8276 178.12 104.365C175.103 99.322 169.612 95.9601 163.281 96.059C153.932 96.2568 146.512 104.019 146.76 113.362C146.76 115.291 147.205 117.07 147.848 118.801C144.93 121.075 142.061 123.547 139.439 126.315C109.909 157.165 110.997 206.06 141.863 235.575C172.728 265.089 221.648 264.002 251.178 233.152C280.708 202.302 279.62 153.408 248.755 123.893V123.843ZM247.32 229.444C219.818 258.168 174.262 259.157 145.523 231.718C116.784 204.23 115.795 158.698 143.248 129.974C145.523 127.601 147.947 125.475 150.469 123.497C153.635 127.502 158.532 130.023 164.023 129.924C173.371 129.727 180.791 121.965 180.544 112.621C180.544 111.484 180.395 110.396 180.148 109.358C202.703 104.562 227.139 110.594 245.045 127.7C273.783 155.187 274.773 200.72 247.32 229.444Z" fill="url(#paint3_linear_161_3522)"/>
<path d="M383 271.615C383 279.13 376.916 285.211 369.398 285.211C361.879 285.211 355.795 279.13 355.795 271.615C355.795 264.101 361.879 258.02 369.398 258.02C376.916 258.02 383 264.101 383 271.615Z" fill="url(#paint4_linear_161_3522)"/>
<path d="M375.629 126.068C375.629 108.32 361.235 93.9332 343.478 93.9332C340.46 93.9332 337.592 94.3782 334.822 95.1197C328.292 84.441 320.428 74.3061 311.178 65.0611C248.507 2.4225 146.858 2.4225 84.1379 65.0611C69.1997 79.9916 57.8725 97.1467 50.0572 115.439C48.4743 115.142 46.7925 114.945 45.1108 114.945C30.5683 114.945 18.7959 126.711 18.7959 141.246C18.7959 153.161 26.7596 163.246 37.6417 166.46C34.2781 211.449 49.7604 257.525 84.1873 291.935C146.858 354.573 248.507 354.623 311.227 291.935C348.474 254.707 363.61 203.687 356.586 155.286C367.814 150.293 375.629 139.071 375.629 125.969V126.068ZM303.412 284.173C245.044 342.51 150.42 342.51 92.0521 284.173C59.9994 252.137 45.6054 209.224 48.7216 167.349C61.5823 165.619 71.4751 154.644 71.4751 141.295C71.4751 132.396 67.0233 124.585 60.2962 119.79C67.5674 102.783 78.1527 86.8141 92.0521 72.8724C150.42 14.5349 245.044 14.5349 303.412 72.8724C311.771 81.2275 318.894 90.3242 324.83 99.9647C316.718 105.798 311.376 115.291 311.376 126.068C311.376 143.817 325.77 158.203 343.478 158.203C344.22 158.203 344.962 158.154 345.704 158.104C351.887 202.846 337.74 249.813 303.362 284.222L303.412 284.173Z" fill="url(#paint5_linear_161_3522)"/>
<path d="M278.334 96.6029C232.431 50.724 157.988 50.724 112.085 96.6029C66.1825 142.482 66.1825 216.887 112.085 262.766C147.65 298.312 200.28 306.272 243.561 286.793C247.468 291.144 253.157 293.912 259.439 293.912C271.211 293.912 280.807 284.37 280.807 272.555C280.807 268.995 279.917 265.633 278.383 262.667C324.236 216.788 324.187 142.432 278.334 96.5535V96.6029ZM117.823 257.031C75.0861 214.316 75.0861 145.053 117.823 102.338C160.56 59.6229 229.859 59.6229 272.596 102.338C315.135 144.806 315.333 213.575 273.288 256.339C269.579 253.175 264.731 251.247 259.488 251.247C247.716 251.247 238.169 260.788 238.169 272.555C238.169 275.076 238.614 277.499 239.455 279.723C199.34 297.422 150.766 289.858 117.872 256.982L117.823 257.031Z" fill="url(#paint6_linear_161_3522)"/>
<defs>
<linearGradient id="paint0_linear_161_3522" x1="221.922" y1="206.35" x2="168.576" y2="152.976" gradientUnits="userSpaceOnUse">
<stop stop-color="#97FF9B"/>
<stop offset="0.51" stop-color="#7EDE81"/>
<stop offset="1" stop-color="#53927D"/>
</linearGradient>
<linearGradient id="paint1_linear_161_3522" x1="348.325" y1="18.6878" x2="310.931" y2="18.6878" gradientUnits="userSpaceOnUse">
<stop stop-color="#E592FB"/>
<stop offset="0.51" stop-color="#7B6DFA"/>
<stop offset="1" stop-color="#5E31F9"/>
</linearGradient>
<linearGradient id="paint2_linear_161_3522" x1="37.345" y1="269.44" x2="-0.000339493" y2="269.44" gradientUnits="userSpaceOnUse">
<stop stop-color="#E592FB"/>
<stop offset="0.51" stop-color="#7B6DFA"/>
<stop offset="1" stop-color="#5E31F9"/>
</linearGradient>
<linearGradient id="paint3_linear_161_3522" x1="116.488" y1="100.904" x2="256.646" y2="241.135" gradientUnits="userSpaceOnUse">
<stop stop-color="#8FFFFF"/>
<stop offset="0.51" stop-color="#60A8FB"/>
<stop offset="1" stop-color="#3762FA"/>
</linearGradient>
<linearGradient id="paint4_linear_161_3522" x1="245.391" y1="271.615" x2="407.485" y2="271.615" gradientUnits="userSpaceOnUse">
<stop stop-color="#E592FB"/>
<stop offset="0.51" stop-color="#7B6DFA"/>
<stop offset="1" stop-color="#5E31F9"/>
</linearGradient>
<linearGradient id="paint5_linear_161_3522" x1="369.249" y1="7.0697" x2="85.422" y2="291.043" gradientUnits="userSpaceOnUse">
<stop stop-color="white"/>
<stop offset="0.51" stop-color="#7B6DFA"/>
<stop offset="1" stop-color="#5E31F9"/>
</linearGradient>
<linearGradient id="paint6_linear_161_3522" x1="261.269" y1="62.7375" x2="137.46" y2="291.197" gradientUnits="userSpaceOnUse">
<stop stop-color="#8FFFFF"/>
<stop offset="0.51" stop-color="#60A8FB"/>
<stop offset="1" stop-color="#3762FA"/>
</linearGradient>
</defs>
</svg>
