<svg width="24" height="20" viewBox="0 0 24 20" fill="none" xmlns="http://www.w3.org/2000/svg">
<path d="M21.4142 0H2.586C1.15997 0 0 1.0591 0 2.36096V16.8014C0 18.1033 1.15997 19.1625 2.586 19.1625H21.4142C22.84 19.1625 24 18.1033 24 16.8014V2.36096C24 1.0591 22.84 0 21.4142 0ZM21.4142 1.28397C21.4728 1.28397 21.5302 1.28799 21.5867 1.29565L12.8342 9.28706C12.3742 9.70701 11.6258 9.70701 11.1658 9.28706L2.41331 1.29561C2.47048 1.28781 2.5282 1.28391 2.586 1.28392L21.4142 1.28397ZM22.5938 16.8014C22.5938 17.3954 22.0645 17.8786 21.4142 17.8786H2.586C1.93542 17.8786 1.40625 17.3954 1.40625 16.8014V2.36113C1.40625 2.30746 1.41066 2.25499 1.41891 2.20346L10.1715 10.1949C10.6756 10.6553 11.3378 10.8853 12 10.8853C12.6622 10.8853 13.3244 10.6553 13.8285 10.1948L22.5811 2.20346C22.5893 2.25499 22.5938 2.30763 22.5938 2.36113V16.8014Z" fill="#F53838"/>
</svg>
