<svg width="37" height="37" viewBox="0 0 37 37" fill="none" xmlns="http://www.w3.org/2000/svg">
<path d="M18.5003 0C8.29953 0 0.000488281 8.29904 0.000488281 18.4998C0.000488281 28.7008 8.29936 37 18.5002 37C28.7011 37 37 28.7008 37 18.4998C37.0002 8.29904 28.7013 0 18.5003 0ZM18.5003 34.4675C9.69596 34.4675 2.53317 27.3044 2.53317 18.4998C2.533 9.69547 9.69596 2.53251 18.5003 2.53251C27.3047 2.53251 34.4676 9.69547 34.4676 18.4998C34.4676 27.3045 27.3047 34.4675 18.5003 34.4675Z" fill="white"/>
<path d="M28.0451 18.2529H19.2571V8.65261C19.2571 8.31678 19.1237 7.9947 18.8862 7.75723C18.6488 7.51976 18.3267 7.38635 17.9909 7.38635C17.655 7.38635 17.333 7.51976 17.0955 7.75723C16.858 7.9947 16.7246 8.31678 16.7246 8.65261V19.5191C16.7246 19.6854 16.7574 19.8501 16.821 20.0037C16.8846 20.1573 16.9779 20.2969 17.0955 20.4145C17.2131 20.5321 17.3527 20.6253 17.5063 20.689C17.6599 20.7526 17.8246 20.7854 17.9909 20.7854H28.0451C28.3809 20.7854 28.703 20.652 28.9405 20.4145C29.178 20.177 29.3114 19.8549 29.3114 19.5191C29.3114 19.1833 29.178 18.8612 28.9405 18.6237C28.703 18.3863 28.3809 18.2529 28.0451 18.2529Z" fill="white"/>
</svg>
