<svg width="23" height="23" viewBox="0 0 23 23" fill="none" xmlns="http://www.w3.org/2000/svg">
<path d="M0.617956 10.0039C0.618675 10.0034 0.619215 10.0027 0.619753 10.0021L10.0019 0.620371C10.4019 0.220207 10.9335 0 11.4991 0C12.0646 0 12.5963 0.220207 12.9964 0.620326L22.3737 9.99736C22.3769 10.0005 22.3802 10.0038 22.3831 10.007C23.2044 10.833 23.203 12.1731 22.3791 12.9969C22.0027 13.3735 21.5058 13.5915 20.9743 13.6144C20.9525 13.6165 20.9307 13.6176 20.9088 13.6176H20.5351V20.5219C20.5351 21.8883 19.4232 23 18.0568 23H14.3862C14.014 23 13.7124 22.6981 13.7124 22.3261V16.9131C13.7124 16.2896 13.2051 15.7825 12.5816 15.7825H10.4166C9.79307 15.7825 9.28599 16.2897 9.28599 16.9131V22.3262C9.28599 22.6982 8.98434 23 8.61216 23H4.94155C3.57494 23 2.4633 21.8884 2.4633 20.5219V13.6176H2.11655C1.55116 13.6176 1.01947 13.3974 0.619215 12.9971C-0.205551 12.172 -0.205866 10.8295 0.618002 10.0038L0.617956 10.0039ZM1.57223 12.0443C1.64354 12.1161 1.72836 12.1729 1.82179 12.2117C1.91522 12.2504 2.01541 12.2702 2.11655 12.27H3.13717C3.50935 12.27 3.811 12.5716 3.811 12.9438V20.5219C3.811 21.1452 4.31813 21.6523 4.9416 21.6523H7.93834V16.9131C7.93834 15.5467 9.05002 14.4348 10.4166 14.4348H12.5815C13.9482 14.4348 15.06 15.5467 15.06 16.9131V21.6523H18.0567C18.6801 21.6523 19.1874 21.1452 19.1874 20.5219V12.9438C19.1874 12.5716 19.489 12.27 19.8612 12.27H20.8642C20.8748 12.2692 20.8853 12.2687 20.8958 12.2685C21.0966 12.265 21.2848 12.1854 21.4259 12.0441C21.726 11.744 21.726 11.2557 21.4259 10.9555C21.4258 10.9555 21.4258 10.9553 21.4256 10.9551L21.425 10.9546L12.0433 1.57316C11.972 1.50143 11.8872 1.44455 11.7938 1.40584C11.7004 1.36713 11.6002 1.34735 11.4991 1.34766C11.2936 1.34766 11.1004 1.42766 10.9549 1.57316L1.57524 10.9527L1.57084 10.9569C1.27233 11.2575 1.27287 11.7448 1.57223 12.0443Z" fill="#F53838"/>
</svg>
