<svg width="25" height="25" viewBox="0 0 25 25" fill="none" xmlns="http://www.w3.org/2000/svg">
<path d="M12.5 6.52393C9.20488 6.52393 6.52393 9.20488 6.52393 12.5C6.52393 15.7951 9.20483 18.4761 12.5 18.4761C15.7952 18.4761 18.4761 15.7952 18.4761 12.5C18.4761 9.20483 15.7952 6.52393 12.5 6.52393ZM12.5 16.9821C10.0287 16.9821 8.01792 14.9713 8.01792 12.5C8.01792 10.0287 10.0287 8.01792 12.5 8.01792C14.9713 8.01792 16.9821 10.0287 16.9821 12.5C16.9821 14.9713 14.9713 16.9821 12.5 16.9821Z" fill="#F53838"/>
<path d="M24.4118 9.65347L22.4903 9.23574C22.3229 8.7235 22.1162 8.22496 21.872 7.74458L22.9357 6.08999C23.0279 5.94652 23.0682 5.77583 23.05 5.60626C23.0318 5.4367 22.9561 5.27847 22.8355 5.15786L19.8421 2.16445C19.7215 2.0439 19.5633 1.96823 19.3937 1.95002C19.2242 1.93181 19.0535 1.97216 18.91 2.06436L17.2554 3.12808C16.775 2.88382 16.2765 2.67707 15.7642 2.50967L15.3465 0.588232C15.3103 0.421581 15.2181 0.27235 15.0853 0.16534C14.9525 0.0583294 14.7871 -1.59171e-05 14.6166 3.25719e-09H10.3834C10.2129 -4.76866e-06 10.0475 0.0583457 9.91467 0.165355C9.78188 0.272364 9.68971 0.421589 9.65347 0.588232L9.23574 2.50967C8.7235 2.67706 8.22496 2.88379 7.74458 3.12803L6.08999 2.06431C5.94652 1.97212 5.77583 1.93178 5.60626 1.95C5.4367 1.96821 5.27847 2.04389 5.15786 2.16445L2.16445 5.15786C2.0439 5.27848 1.96823 5.43671 1.95002 5.60627C1.93181 5.77584 1.97216 5.94652 2.06436 6.08999L3.12808 7.74458C2.88382 8.22497 2.67707 8.72353 2.50967 9.23579L0.588232 9.65347C0.421594 9.68973 0.272378 9.78192 0.165372 9.91471C0.0583663 10.0475 1.1028e-05 10.2129 0 10.3834L0 14.6166C2.21728e-05 14.7871 0.0583825 14.9525 0.165387 15.0853C0.272392 15.2181 0.421602 15.3103 0.588232 15.3465L2.50967 15.7643C2.67707 16.2765 2.88382 16.775 3.12808 17.2554L2.06431 18.91C1.97212 19.0535 1.93178 19.2242 1.95 19.3937C1.96821 19.5633 2.04389 19.7215 2.16445 19.8421L5.15786 22.8355C5.27848 22.9561 5.43671 23.0318 5.60627 23.05C5.77584 23.0682 5.94652 23.0278 6.08999 22.9356L7.74458 21.8719C8.22497 22.1162 8.72353 22.3229 9.23579 22.4903L9.65347 24.4118C9.68971 24.5784 9.78189 24.7276 9.91469 24.8347C10.0475 24.9417 10.2129 25 10.3834 25H14.6166C14.7871 25 14.9525 24.9417 15.0853 24.8346C15.2181 24.7276 15.3103 24.5784 15.3465 24.4118L15.7643 22.4903C16.2765 22.3229 16.775 22.1162 17.2554 21.8719L18.91 22.9357C19.0535 23.0279 19.2242 23.0683 19.3937 23.0501C19.5633 23.0319 19.7215 22.9562 19.8421 22.8355L22.8355 19.8421C22.9561 19.7215 23.0318 19.5633 23.05 19.3937C23.0682 19.2242 23.0278 19.0535 22.9356 18.91L21.872 17.2554C22.1162 16.775 22.3229 16.2765 22.4903 15.7642L24.4118 15.3465C24.5784 15.3103 24.7276 15.2181 24.8346 15.0853C24.9416 14.9525 25 14.7871 25 14.6166V10.3834C25 10.2129 24.9416 10.0475 24.8346 9.91469C24.7276 9.78191 24.5784 9.68973 24.4118 9.65347ZM23.506 14.0145L21.7441 14.3974C21.6114 14.4263 21.489 14.4909 21.3901 14.5841C21.2913 14.6774 21.2198 14.7958 21.1832 14.9267C20.9888 15.623 20.7109 16.2933 20.3556 16.9228C20.2887 17.0412 20.2555 17.1755 20.2594 17.3114C20.2633 17.4473 20.3042 17.5796 20.3777 17.6939L21.3533 19.2114L19.2116 21.3533L17.6939 20.3777C17.5796 20.3042 17.4474 20.2633 17.3115 20.2594C17.1756 20.2555 17.0413 20.2888 16.9229 20.3556C16.2933 20.7109 15.623 20.9888 14.9267 21.1832C14.7958 21.2198 14.6774 21.2913 14.5841 21.3901C14.4909 21.489 14.4263 21.6114 14.3974 21.7441L14.0145 23.506H10.9855L10.6026 21.7441C10.5737 21.6114 10.5091 21.489 10.4159 21.3901C10.3226 21.2913 10.2042 21.2198 10.0733 21.1832C9.37698 20.9888 8.70675 20.7109 8.0772 20.3556C7.95881 20.2888 7.82444 20.2555 7.68857 20.2594C7.55269 20.2634 7.42046 20.3043 7.3061 20.3777L5.78862 21.3533L3.64683 19.2114L4.62227 17.6939C4.69583 17.5796 4.73678 17.4473 4.74071 17.3114C4.74465 17.1755 4.71141 17.0411 4.64458 16.9228C4.28925 16.2932 4.01131 15.623 3.8168 14.9268C3.78029 14.7959 3.70879 14.6774 3.60998 14.5842C3.51118 14.4909 3.38881 14.4264 3.25605 14.3975L1.49404 14.0145V10.9856L3.25586 10.6026C3.38864 10.5737 3.51103 10.5092 3.60987 10.4159C3.70871 10.3227 3.78025 10.2042 3.8168 10.0733C4.01117 9.37703 4.28906 8.7068 4.64443 8.07725C4.71127 7.95887 4.74453 7.8245 4.74062 7.68862C4.73672 7.55273 4.69579 7.42049 4.62227 7.30615L3.64668 5.78867L5.78843 3.64673L7.3061 4.62231C7.42042 4.69584 7.55264 4.73676 7.6885 4.74066C7.82436 4.74456 7.95871 4.71129 8.07705 4.64443C8.70667 4.28912 9.37695 4.01124 10.0733 3.81685C10.2042 3.7803 10.3226 3.70876 10.4159 3.60992C10.5091 3.51108 10.5737 3.38869 10.6026 3.25591L10.9855 1.49409H14.0145L14.3974 3.25591C14.4263 3.38869 14.4909 3.51108 14.5841 3.60992C14.6774 3.70876 14.7958 3.7803 14.9267 3.81685C15.623 4.01122 16.2933 4.28911 16.9228 4.64448C17.0412 4.71127 17.1756 4.74451 17.3114 4.7406C17.4473 4.73669 17.5795 4.6958 17.6939 4.62231L19.2114 3.64673L21.3531 5.78867L20.3777 7.30615C20.3042 7.42048 20.2632 7.55273 20.2593 7.68862C20.2554 7.82451 20.2886 7.9589 20.3554 8.0773C20.7108 8.70683 20.9888 9.37705 21.1832 10.0733C21.2197 10.2042 21.2912 10.3227 21.39 10.4159C21.4888 10.5092 21.6112 10.5737 21.7439 10.6026L23.506 10.9856L23.506 14.0145Z" fill="#F53838"/>
</svg>
